inDegrees=no
num_controls=7
num_derivatives=13
num_iterations=223
num_multipliers=7
num_parameters=0
num_slacks=7
num_states=26
objective=6.143449
objective_accelerations=0.566122
objective_balance=0.019345
objective_effort=0.497208
objective_height=4.992536
objective_ligament=0.068238
solver_duration=1911.149263
status=Solve_Succeeded
success=true
DataType=double
version=3
OpenSimVersion=4.4-2022-07-23-0e9fedc
endheader
time	/jointset/ground_pelvis/pelvis_tilt/value	/jointset/ground_pelvis/pelvis_tx/value	/jointset/ground_pelvis/pelvis_ty/value	/jointset/hip_r/hip_flexion_r/value	/jointset/hip_r/hip_adduction_r/value	/jointset/hip_r/hip_rotation_r/value	/jointset/back/lumbar_extension/value	/jointset/patellofemoral_r/patellar_flexion_r/value	/jointset/knee_r/knee_flexion_r/value	/jointset/knee_r/knee_adduction_r/value	/jointset/knee_r/knee_rotation_r/value	/jointset/ankle_r/ankle_angle_r/value	/jointset/subtalar_r/subtalar_angle_r/value	/jointset/ground_pelvis/pelvis_tilt/speed	/jointset/ground_pelvis/pelvis_tx/speed	/jointset/ground_pelvis/pelvis_ty/speed	/jointset/hip_r/hip_flexion_r/speed	/jointset/hip_r/hip_adduction_r/speed	/jointset/hip_r/hip_rotation_r/speed	/jointset/back/lumbar_extension/speed	/jointset/patellofemoral_r/patellar_flexion_r/speed	/jointset/knee_r/knee_flexion_r/speed	/jointset/knee_r/knee_adduction_r/speed	/jointset/knee_r/knee_rotation_r/speed	/jointset/ankle_r/ankle_angle_r/speed	/jointset/subtalar_r/subtalar_angle_r/speed	/forceset/tau_hip_flexion_r	/forceset/tau_hip_adduction_r	/forceset/tau_hip_rotation_r	/forceset/tau_knee_flexion_r	/forceset/tau_ankle_angle_r	/forceset/tau_subtalar_angle_r	/forceset/tau_lumbar_extension	lambda_cid13_p0	lambda_cid14_p0	lambda_cid14_p1	lambda_cid14_p2	lambda_cid14_p3	lambda_cid14_p4	lambda_cid14_p5	/jointset/ground_pelvis/pelvis_tilt/accel	/jointset/ground_pelvis/pelvis_tx/accel	/jointset/ground_pelvis/pelvis_ty/accel	/jointset/hip_r/hip_flexion_r/accel	/jointset/hip_r/hip_adduction_r/accel	/jointset/hip_r/hip_rotation_r/accel	/jointset/back/lumbar_extension/accel	/jointset/patellofemoral_r/patellar_flexion_r/accel	/jointset/knee_r/knee_flexion_r/accel	/jointset/knee_r/knee_adduction_r/accel	/jointset/knee_r/knee_rotation_r/accel	/jointset/ankle_r/ankle_angle_r/accel	/jointset/subtalar_r/subtalar_angle_r/accel	gamma_cid13_p0	gamma_cid14_p0	gamma_cid14_p1	gamma_cid14_p2	gamma_cid14_p3	gamma_cid14_p4	gamma_cid14_p5
1.5	-0.1563063047126301	0.03364694369823597	0.8465098717994347	0.811410961476063	-0.2208631572994503	-0.1397187319662542	-0.2928833795978298	0.7364772502143344	0.736477250214337	0.006625984634858082	0.1745328527763387	0.2580067389520715	0.06746985665772713	0.3524921779035057	0.1696907633858822	0.4339716047042621	-1.835370349145885	0.005000277636878965	-0.2449751436678517	0.7009819797875675	-2.002948523755995	-2.002948523755979	0.3845854866863915	2.11974202789982e-07	-0.6238040043035125	-0.1795769543369725	-0.09700701474925674	-0.02468013390928989	0.01070089355551001	-0.3416379807825226	0.08378443551208911	-0.007266689825145984	0.1439986570023052	-29.1897058185383	-14.06205549381196	-2.1259032983254	-3.19001887673095	-1.004908309864487	-652.5000826574507	62.12029725476171	0.2440520303082938	0.4510030693377171	-0.5932218984188605	-0.9778745246558953	-0.1255493850476612	-0.6274865141109759	1.451855165095558	-1.079641359832989	-1.079641359832987	0.4628607796666946	-0.08455582202265355	-0.5065057574087554	-0.150227743822084	5.676023885014482e-08	-3.876944087889576e-07	-3.217839354437231e-06	-3.04700445429112e-06	6.002184601863745e-07	-3.034380759868973e-07	-7.813205495680211e-07
1.51	-0.1527697419570325	0.03536615022362273	0.8508189924890965	0.793010940767377	-0.2208188323296535	-0.1422060051875288	-0.2858020716010147	0.7163964388851772	0.7163964388851719	0.01049003396069191	0.174532876062345	0.2517444369889202	0.0656678482814759	0.3547662943670837	0.174123149977902	0.4277609956773555	-1.844378482259815	0.003871758151348366	-0.2524694883353547	0.7151660874472191	-2.012925394312181	-2.012925394312142	0.388210004796482	5.805012043567286e-06	-0.6285624634700685	-0.1807848887445382	-0.09049070638335113	-0.02629228273788398	0.01004763029026749	-0.3378356565190732	0.08704964887508741	-0.008107215548333142	0.1380360133650645	-30.37394119637577	-12.82877501688899	-2.156135676544335	-3.320978235938973	-1.441271012312719	-648.3497665434193	62.03545540578666	0.2109495171771879	0.4353667225052516	-0.6487749668810462	-0.8240291213532103	-0.1062397776216174	-0.8090676524392643	1.384658747143811	-0.9134691726971329	-0.9134691726936651	0.3094729841254431	0.0427117492370688	-0.4463259908953108	-0.100976063035396	5.702961648293251e-08	-3.901349785733928e-07	-3.201504638173311e-06	-3.116993696196926e-06	5.96858009438249e-07	-3.141361212907245e-07	-6.505549995727648e-07
1.52	-0.1492120664242404	0.03712888266860391	0.8550632481760784	0.7745284894442331	-0.2207857398641752	-0.1447679536973523	-0.2785823284914543	0.6962245069966204	0.6962245069966085	0.01438977359911544	0.1745328742552546	0.2454373884351802	0.06385478060638669	0.3567147333424473	0.1783959473047662	0.4209986041682753	-1.851856472037412	0.002753776773183688	-0.2599102013776302	0.7286690023366252	-2.021172635635798	-2.021172635635736	0.3917235492043811	-4.806648130514945e-06	-0.6327533224212758	-0.1817888141045668	-0.08397439801744651	-0.027904431566479	0.009394367025035051	-0.3340333322556233	0.09031486223808563	-0.008947741271521715	0.1320733697278229	-31.54200991634527	-11.60064754710135	-2.191227949195655	-3.446638807631448	-1.861860691436279	-644.2784943731165	61.89990876307412	0.1789165326654072	0.4190852163065932	-0.7035783948535572	-0.6718458573891093	-0.1234417635744814	-0.6167601890654947	1.315616611046484	-0.7337155133192409	-0.7337155133192491	0.4406660392283916	-0.08779676162561664	-0.392985714339004	-0.109425934314645	5.586794329671752e-08	-3.896876846346295e-07	-3.115406935475662e-06	-3.128991732361879e-06	5.878613867197916e-07	-3.361442699261572e-07	-5.074362705602005e-07
1.53	-0.1456367234884055	0.03893346351964887	0.8592371498794545	0.7559793245314447	-0.2207635760615289	-0.1474039737776734	-0.2712308695137089	0.6759790308939596	0.675979030893946	0.01832387558685387	0.1745326321079424	0.2390913858790804	0.06203294933498373	0.358298936215078	0.1824847152999564	0.413697562130146	-1.857707921545594	0.001697616808525354	-0.2673171655511948	0.7414955619128549	-2.027622195680268	-2.027622195680216	0.3950393717060369	-1.996249459751757e-05	-0.6363478869136573	-0.1825233219896267	-0.07750442851567609	-0.0289755930996584	0.00853110585247524	-0.3300931246537021	0.09335524084635824	-0.009948533699018007	0.1261391941219909	-32.68448691233284	-10.46690484614722	-2.327771200968884	-3.53862825132769	-2.179444419030888	-640.4067640460237	61.5341130843389	0.1399080333900642	0.3985594213254063	-0.7560709417886092	-0.5015464561288359	-0.09467333420696679	-0.8063481940909674	1.247090935955637	-0.5555282175687069	-0.5555282175700434	0.2678303882928496	0.04460003458331828	-0.3277043924706821	-0.0481571762376685	5.318577861531219e-08	-3.861720354899681e-07	-2.955186059692176e-06	-3.079374112427176e-06	5.728763312828563e-07	-3.701694033514208e-07	-3.511922888417461e-07
1.54	-0.142047191350079	0.04077788941668577	0.8633355003957502	0.7373796947318547	-0.2207515679027887	-0.1501148002322478	-0.2637549618791926	0.655678068797342	0.6556780687973275	0.02228929380614048	0.1745328334082924	0.2327124351629002	0.06020523419260294	0.3595525738408356	0.1863649565031528	0.4058883667521846	-1.861949449397618	0.0007226479920495077	-0.2748714762283205	0.7535587336908621	-2.032269834427047	-2.032269834427004	0.3979867955140398	8.388288855791982e-05	-0.6393429544373572	-0.182965588300127	-0.07103445901390673	-0.03004675463283983	0.007667844679924197	-0.3261529170517805	0.09639561945463053	-0.01094932612651698	0.1202050185161579	-33.79052319858724	-9.343166464937042	-2.469275754007151	-3.626157445601375	-2.468023291217218	-636.690930697495	61.12397425386149	0.1128034832907772	0.3773798579078513	-0.8052090628199519	-0.3498615261575383	-0.1072035339379914	-0.6462294897777224	1.162939051401965	-0.3733312537809594	-0.3733312537809573	0.3669863004977893	-0.06399651570111142	-0.2730863206026862	-0.05097761940273302	6.54572835889842e-08	-3.027733567619736e-07	-2.580674580414378e-06	-2.402523157201232e-06	4.808324477331203e-07	-2.916879629277783e-07	-3.650421055018046e-07
1.55	-0.1384467383647989	0.0426600552827173	0.8673533218046984	0.7187454860283037	-0.2207496480748083	-0.1528983162181938	-0.2561623454989447	0.6353396518001059	0.6353396518001022	0.02628589831153139	0.1745326861092143	0.2263063262892899	0.05837343238047673	0.3604749490450443	0.1900297586674383	0.3976001026452408	-1.864609826368933	-0.000307237839080534	-0.2819031298918814	0.7648366740711673	-2.035103876941656	-2.035103876941633	0.4012174986938001	-6.193628359208602e-05	-0.6417682907937808	-0.1833219012162201	-0.06452333877572168	-0.03132252341375333	0.006675899260232893	-0.3223719176577759	0.09957271358000443	-0.01176174295496837	0.1142772833403163	-34.85414544782778	-8.181972683409501	-2.508396822306405	-3.746018329817084	-2.799455046391281	-633.2540394109139	60.95248946138641	0.07249366915286537	0.3553015989253397	-0.8520005361577669	-0.1817575813095611	-0.0963591154990643	-0.7422604858294182	1.091041288194686	-0.1920098080011411	-0.1920098080042812	0.2833666718239337	0.0177912524369992	-0.210632111663362	-0.01730784664935416	9.495801664350521e-08	-1.273355352531873e-07	-1.959263057980102e-06	-1.002990315661506e-06	3.000033926621188e-07	-8.357938306953388e-08	-5.748695594240516e-07
1.56	-0.1348389538014436	0.04457772341103895	0.8712859874822718	0.7000931471953008	-0.2207571227066995	-0.155754274177012	-0.248460785763524	0.6149821805661836	0.6149821805661908	0.03031126071774138	0.1745326137924735	0.2198792890884151	0.05654019749540223	0.3610188894559309	0.1934654089611795	0.388857220477258	-1.865575475287894	-0.00115624398215162	-0.2893598708028079	0.7753474047254684	-2.036080681764279	-2.036080681764277	0.4037383756779123	9.887936061541393e-05	-0.6435286198902505	-0.1832522028897837	-0.05801221853753906	-0.03259829219466921	0.005683953840544166	-0.318590918263771	0.1027498077053781	-0.0125741597834223	0.1083495481644726	-35.86932386877784	-7.03071706299326	-2.547770857309751	-3.867536995400632	-3.12062819578611	-629.9755108615868	60.81635659258242	0.03711652462633915	0.3315494837989856	-0.8961326750277324	-0.01091591568688237	-0.07102759632619719	-0.7312469392508202	1.009497106201125	-0.001883715383889342	-0.001883715383889304	0.2250210613681615	-0.002669552429631518	-0.1400848686118545	0.03422462910314875	1.275742221140815e-07	5.479245999633335e-08	-1.367593663477981e-06	4.524462490248162e-07	1.183562904132763e-07	1.466213097706389e-07	-8.808787527641441e-07
1.57	-0.1312275271271299	0.04652864367534061	0.8751290891768222	0.6814390942674626	-0.2207734031429748	-0.1586820798293945	-0.2406582677763068	0.5946240248273456	0.5946240248273458	0.03436325972043461	0.1745329237545717	0.2134376215760999	0.05470801773796283	0.3611951567100549	0.1966828061683186	0.3796980435845075	-1.8649557960148	-0.002083073539948051	-0.2962132263173096	0.7850129474522759	-2.035242857132502	-2.035242857132495	0.4065954241769087	-2.123091534941913e-05	-0.6446901205568094	-0.1831310563998853	-0.05103933204206638	-0.03485089601754267	0.004752356726461086	-0.3158515418062193	0.1072217712170832	-0.0132769955028696	0.1021410753450032	-36.83004330858671	-5.477690561228071	-2.459429132265624	-4.020584547635409	-3.751005159198124	-627.0562641559052	61.11627576455756	-0.002784174806006127	0.3114252822202314	-0.935460848327251	0.1403464146837304	-0.1005723982374992	-0.6637701820942838	0.9235960660436623	0.1727198618930252	0.1727198618938045	0.3062576260230648	-0.01382057932522221	-0.08696949953760855	0.009222581240199616	1.640847681047268e-07	2.45283172421772e-07	-8.131019288910512e-07	1.977762467644382e-06	-6.431337080786741e-08	4.044371438382218e-07	-1.307115120376542e-06
1.58	-0.1276164709803973	0.04851065600032342	0.8788786689720592	0.6627996254455304	-0.2207983642273743	-0.1616786971018308	-0.2327633917197968	0.5742834681967112	0.5742834681967061	0.03844187138448946	0.1745326048512047	0.2069877816903471	0.05287868202988382	0.3609447839397217	0.19968382109741	0.370152840614622	-1.862658654106657	-0.002892373606990171	-0.3031221948135893	0.7938190185840076	-2.032560860123342	-2.032560860123329	0.4090609079502124	-2.689375712655812e-05	-0.6451630945777559	-0.1826833930177066	-0.04406644554659413	-0.03710349984041582	0.003820759612393127	-0.3131121653486675	0.1116937347287884	-0.0139798312223169	0.09593260252553325	-37.73036624470944	-3.934229318758045	-2.369112092645508	-4.178118432620081	-4.392797709976379	-624.296301541229	61.54042266904347	-0.04821148026507625	0.2882730281894778	-0.9733378904547403	0.3245766113228992	-0.04752169817534035	-0.7423695356064329	0.8376027871859527	0.3669507600929393	0.3669507600929396	0.1467081162295902	0.02021993440792198	-0.002379539489354772	0.0995280075592041	1.909713671237275e-07	3.539760833876557e-07	-5.661208323281281e-07	2.849941490808856e-06	-1.602412810839295e-07	5.545381079088008e-07	-1.600223739177068e-06
